<?xml version="1.0" standalone="no"?>
<!DOCTYPE svg PUBLIC "-//W3C//DTD SVG 20010904//EN"
 "http://www.w3.org/TR/2001/REC-SVG-20010904/DTD/svg10.dtd">
<svg version="1.0" xmlns="http://www.w3.org/2000/svg"
 width="512.000000pt" height="512.000000pt" viewBox="0 0 512.000000 512.000000"
 preserveAspectRatio="xMidYMid meet">
<metadata>
Created by potrace 1.14, written by Peter Selinger 2001-2017
</metadata>
<g transform="translate(0.000000,512.000000) scale(0.100000,-0.100000)"
fill="#000000" stroke="none">
<path d="M822 5104 c-152 -40 -280 -182 -299 -330 -8 -64 -8 -4364 0 -4428 14
-107 98 -231 197 -288 106 -61 -8 -58 1844 -57 1647 0 1693 1 1751 20 87 28
163 84 212 158 83 123 76 -94 76 2371 0 1207 -3 2209 -6 2225 -32 163 -145
288 -299 329 -79 22 -3397 22 -3476 0z m3430 -281 c17 -10 40 -31 52 -46 l21
-28 0 -2189 0 -2189 -21 -28 c-12 -15 -35 -36 -52 -46 -30 -18 -101 -19 -1689
-19 -1076 0 -1667 4 -1684 10 -27 11 -78 65 -80 85 -1 7 -2 990 -3 2185 -1
1651 1 2180 10 2201 21 51 71 80 144 83 36 2 786 2 1668 1 1532 -1 1604 -2
1634 -20z"/>
<path d="M1247 4455 c-2 -9 -1 -316 2 -356 1 -14 122 -16 1311 -16 1191 0
1310 2 1311 16 1 21 1 308 0 341 l-1 25 -1310 0 c-879 0 -1311 -3 -1313 -10z"/>
<path d="M1308 3442 c-32 -2 -58 -6 -59 -10 -1 -10 -1 -194 0 -213 1 -13 86
-15 816 -15 l815 0 1 28 c2 114 1 200 -4 204 -6 6 -1468 11 -1569 6z"/>
<path d="M3072 2540 c0 -495 3 -901 7 -901 3 -1 181 -2 394 -3 337 -1 390 1
396 14 3 8 6 413 5 900 l-1 885 -400 3 -401 2 0 -900z m660 748 c3 -11 3
-1433 -1 -1493 -1 -20 -7 -21 -258 -20 l-258 0 -3 763 -2 762 259 0 c198 0
260 -3 263 -12z"/>
<path d="M1249 2883 c-1 -35 -1 -195 0 -205 1 -5 368 -8 816 -8 l815 0 1 28
c1 33 1 159 0 190 l-1 22 -815 0 -815 0 -1 -27z"/>
<path d="M1252 2385 c-6 -8 -7 -168 -3 -220 1 -12 1614 -15 1626 -4 8 9 9 218
1 226 -11 11 -1617 9 -1624 -2z"/>
<path d="M1257 1868 c-10 -5 -14 -118 -8 -218 1 -13 98 -15 816 -15 l815 0 1
40 c2 114 0 188 -6 193 -8 8 -1604 8 -1618 0z"/>
<path d="M1253 1396 c-3 -5 -6 -56 -7 -114 -1 -76 2 -106 12 -109 7 -3 597 -6
1312 -7 l1300 -1 1 25 c1 38 1 172 0 195 l-1 21 -1306 0 c-779 0 -1308 -4
-1311 -10z"/>
</g>
</svg>
